<?xml version="1.0" standalone="no"?>
<!DOCTYPE svg PUBLIC "-//W3C//DTD SVG 20010904//EN"
 "http://www.w3.org/TR/2001/REC-SVG-20010904/DTD/svg10.dtd">
<svg version="1.0" xmlns="http://www.w3.org/2000/svg"
 width="350.000000pt" height="215.000000pt" viewBox="0 0 350.000000 215.000000"
 preserveAspectRatio="xMidYMid meet">

<g transform="translate(0.000000,215.000000) scale(0.100000,-0.100000)"
fill="#000000" stroke="none">
<path d="M1945 1870 c-197 -113 -329 -195 -327 -202 2 -7 211 -374 465 -816
l462 -802 448 0 c249 0 447 4 445 9 -8 21 -1154 2000 -1158 2001 -3 0 -153
-85 -335 -190z"/>
<path d="M1170 1161 c-179 -104 -325 -191 -325 -194 0 -3 119 -210 264 -461
l264 -456 444 0 c352 0 444 3 440 13 -17 44 -740 1282 -750 1284 -6 1 -158
-83 -337 -186z"/>
<path d="M393 477 c-183 -106 -333 -196 -333 -201 0 -5 28 -57 62 -117 l62
-109 449 0 449 0 -22 37 c-12 21 -92 160 -178 308 -85 149 -155 271 -156 272
-1 1 -151 -85 -333 -190z"/>
</g>
</svg>
