<?xml version="1.0" standalone="no"?>
<!DOCTYPE svg PUBLIC "-//W3C//DTD SVG 20010904//EN"
 "http://www.w3.org/TR/2001/REC-SVG-20010904/DTD/svg10.dtd">
<svg version="1.0" xmlns="http://www.w3.org/2000/svg"
 width="46.000000pt" height="34.000000pt" viewBox="0 0 46.000000 34.000000"
 preserveAspectRatio="xMidYMid meet">

<g transform="translate(0.000000,34.000000) scale(0.100000,-0.100000)"
fill="#000000" stroke="none">
<path d="M140 220 c0 -6 38 -10 94 -10 79 0 97 -3 120 -21 21 -16 26 -29 25
-62 0 -41 0 -42 -16 -20 -19 28 -49 30 -63 3 -6 -11 -19 -20 -30 -20 -11 0
-24 9 -30 20 -6 11 -19 20 -30 20 -11 0 -24 -9 -30 -20 -6 -11 -18 -20 -28
-21 -13 0 -14 -2 -2 -6 8 -2 25 -10 38 -16 18 -8 28 -8 42 1 25 15 55 15 80 0
16 -10 24 -10 40 0 11 6 27 12 35 12 11 0 15 12 15 49 0 44 -3 51 -34 75 -32
24 -43 26 -130 26 -57 0 -96 -4 -96 -10z m85 -119 c7 -12 -12 -24 -25 -16 -11
7 -4 25 10 25 5 0 11 -4 15 -9z m120 0 c7 -12 -12 -24 -25 -16 -11 7 -4 25 10
25 5 0 11 -4 15 -9z"/>
<path d="M70 190 c0 -5 20 -10 45 -10 25 0 45 5 45 10 0 6 -20 10 -45 10 -25
0 -45 -4 -45 -10z"/>
<path d="M108 153 c12 -2 30 -2 40 0 9 3 -1 5 -23 4 -22 0 -30 -2 -17 -4z"/>
<path d="M105 120 c3 -5 17 -10 31 -10 13 0 24 5 24 10 0 6 -14 10 -31 10 -17
0 -28 -4 -24 -10z"/>
</g>
</svg>
