<?xml version="1.0" standalone="no"?>
<!DOCTYPE svg PUBLIC "-//W3C//DTD SVG 20010904//EN"
 "http://www.w3.org/TR/2001/REC-SVG-20010904/DTD/svg10.dtd">
<svg version="1.0" xmlns="http://www.w3.org/2000/svg"
 width="46.000000pt" height="39.000000pt" viewBox="0 0 46.000000 39.000000"
 preserveAspectRatio="xMidYMid meet">

<g transform="translate(0.000000,39.000000) scale(0.100000,-0.100000)"
fill="#000000" stroke="none">
<path d="M70 175 l0 -75 133 1 c72 1 119 4 104 6 -19 3 -38 18 -58 46 l-31 42
26 3 c14 2 26 7 26 12 0 5 -42 11 -92 13 -87 3 -85 3 30 5 73 1 122 6 122 12
0 6 -50 10 -130 10 l-130 0 0 -75z m84 -15 c14 -22 26 -41 26 -44 0 -2 -20 -4
-45 -4 l-45 -1 0 44 c0 37 3 45 19 45 10 0 30 -17 45 -40z m40 -12 c13 -21 14
-29 5 -21 -8 6 -23 26 -33 45 -13 21 -14 29 -5 21 8 -6 23 -26 33 -45z m30 12
c14 -22 23 -40 19 -40 -8 0 -53 64 -53 75 0 12 9 3 34 -35z"/>
<path d="M310 210 c0 -5 20 -10 45 -10 25 0 45 5 45 10 0 6 -20 10 -45 10 -25
0 -45 -4 -45 -10z"/>
<path d="M328 173 c12 -2 30 -2 40 0 9 3 -1 5 -23 4 -22 0 -30 -2 -17 -4z"/>
<path d="M310 140 c0 -5 11 -10 24 -10 14 0 28 5 31 10 4 6 -7 10 -24 10 -17
0 -31 -4 -31 -10z"/>
</g>
</svg>
