<?xml version="1.0" standalone="no"?>
<!DOCTYPE svg PUBLIC "-//W3C//DTD SVG 20010904//EN"
 "http://www.w3.org/TR/2001/REC-SVG-20010904/DTD/svg10.dtd">
<svg version="1.0" xmlns="http://www.w3.org/2000/svg"
 width="58.000000pt" height="52.000000pt" viewBox="0 0 58.000000 52.000000"
 preserveAspectRatio="xMidYMid meet">

<g transform="translate(0.000000,52.000000) scale(0.100000,-0.100000)"
fill="#000000" stroke="none">
<path d="M68 383 l-47 -78 140 -140 139 -140 139 140 140 140 -47 78 -47 77
-61 0 c-59 0 -63 -2 -93 -37 l-31 -38 -31 38 c-30 35 -34 37 -93 37 l-61 0
-47 -77z m186 -35 l46 -53 46 53 c60 68 92 71 130 11 l26 -42 -101 -101 -101
-101 -101 101 -101 101 26 42 c38 60 70 57 130 -11z"/>
</g>
</svg>
