<?xml version="1.0" standalone="no"?>
<!DOCTYPE svg PUBLIC "-//W3C//DTD SVG 20010904//EN"
 "http://www.w3.org/TR/2001/REC-SVG-20010904/DTD/svg10.dtd">
<svg version="1.0" xmlns="http://www.w3.org/2000/svg"
 width="62.000000pt" height="64.000000pt" viewBox="0 0 62.000000 64.000000"
 preserveAspectRatio="xMidYMid meet">

<g transform="translate(0.000000,64.000000) scale(0.100000,-0.100000)"
fill="#000000" stroke="none">
<path d="M155 581 c-106 -49 -154 -173 -106 -276 49 -106 173 -154 276 -106
l40 19 87 -86 88 -87 22 23 23 22 -87 88 -86 87 19 40 c79 171 -105 355 -276
276z m172 -69 c43 -30 66 -85 60 -138 -9 -84 -80 -141 -163 -131 -192 21 -166
310 27 294 26 -2 60 -13 76 -25z"/>
</g>
</svg>
