<?xml version="1.0" standalone="no"?>
<!DOCTYPE svg PUBLIC "-//W3C//DTD SVG 20010904//EN"
 "http://www.w3.org/TR/2001/REC-SVG-20010904/DTD/svg10.dtd">
<svg version="1.0" xmlns="http://www.w3.org/2000/svg"
 width="61.000000pt" height="69.000000pt" viewBox="0 0 61.000000 69.000000"
 preserveAspectRatio="xMidYMid meet">

<g transform="translate(0.000000,69.000000) scale(0.100000,-0.100000)"
fill="#000000" stroke="none">
<path d="M250 619 c-62 -26 -100 -85 -100 -157 0 -54 25 -100 73 -136 40 -29
134 -29 174 0 98 73 99 205 1 277 -31 23 -111 32 -148 16z m117 -69 c55 -33
61 -122 12 -163 -69 -57 -169 -14 -169 73 0 51 12 75 48 94 37 21 71 19 109
-4z"/>
<path d="M73 198 c-50 -67 -52 -73 -36 -90 9 -10 19 -18 23 -18 4 0 26 27 50
60 l43 60 157 0 157 0 43 -60 c24 -33 46 -60 50 -60 4 0 14 8 23 18 15 17 13
23 -36 90 l-52 72 -185 0 -185 -1 -52 -71z"/>
</g>
</svg>
